<svg width="28" height="28" viewBox="0 0 28 28" fill="none" xmlns="http://www.w3.org/2000/svg">
<path d="M3.5 7H5.83333H24.5" stroke="#ff0000" stroke-width="2" stroke-linecap="round" stroke-linejoin="round"/>
<path d="M9.33301 7.00065V4.66732C9.33301 4.04848 9.57884 3.45499 10.0164 3.0174C10.454 2.57982 11.0475 2.33398 11.6663 2.33398H16.333C16.9518 2.33398 17.5453 2.57982 17.9829 3.0174C18.4205 3.45499 18.6663 4.04848 18.6663 4.66732V7.00065M22.1663 7.00065V23.334C22.1663 23.9528 21.9205 24.5463 21.4829 24.9839C21.0453 25.4215 20.4518 25.6673 19.833 25.6673H8.16634C7.5475 25.6673 6.95401 25.4215 6.51643 24.9839C6.07884 24.5463 5.83301 23.9528 5.83301 23.334V7.00065H22.1663Z" stroke="#ff0000" stroke-width="2" stroke-linecap="round" stroke-linejoin="round"/>
<path d="M11.667 12.834V19.834" stroke="#ff0000" stroke-width="2" stroke-linecap="round" stroke-linejoin="round"/>
<path d="M16.333 12.834V19.834" stroke="#ff0000" stroke-width="2" stroke-linecap="round" stroke-linejoin="round"/>
</svg>