<svg width="144" height="186" viewBox="0 0 144 186" fill="none" xmlns="http://www.w3.org/2000/svg">
<circle cx="72" cy="72.4585" r="71.5" fill="#C4CDD5" fill-opacity="0.31"/>
<rect x="43.9505" y="71.0012" width="70" height="98" rx="7" transform="rotate(2.5 43.9505 71.0012)" fill="#ABADB4" stroke="#60667D" stroke-width="2"/>
<rect x="2.33579" y="65.1392" width="74" height="102" rx="9" transform="rotate(-7.5 2.33579 65.1392)" fill="#FAFAFA" stroke="#60667D" stroke-width="2"/>
<path d="M4.50222 73.9317C3.92552 69.5512 7.00909 65.5326 11.3896 64.9559L66.9105 57.6464C71.291 57.0697 75.3095 60.1533 75.8862 64.5338L77.8441 79.4055L6.46011 88.8034L4.50222 73.9317Z" fill="#ABADB4"/>
<rect x="90.3662" y="59.6016" width="3" height="10" rx="1.5" transform="rotate(82.5 90.3662 59.6016)" fill="#60667D"/>
<rect x="62.9695" y="43.0358" width="3" height="10" rx="1.5" transform="rotate(-7.5 62.9695 43.0358)" fill="#60667D"/>
<rect x="80.5471" y="45.7648" width="3" height="10" rx="1.5" transform="rotate(37.5 80.5471 45.7648)" fill="#60667D"/>
<rect x="13.9221" y="91.8555" width="58" height="4" rx="2" transform="rotate(-7.5 13.9221 91.8555)" fill="#8C97AC"/>
<rect x="16.5327" y="111.684" width="58" height="4" rx="2" transform="rotate(-7.5 16.5327 111.684)" fill="#8C97AC"/>
<rect x="19.1433" y="131.513" width="58" height="4" rx="2" transform="rotate(-7.5 19.1433 131.513)" fill="#8C97AC"/>
<rect x="14.9663" y="99.787" width="21" height="4" rx="2" transform="rotate(-7.5 14.9663 99.787)" fill="#ABADB4"/>
<rect x="17.5769" y="119.616" width="21" height="4" rx="2" transform="rotate(-7.5 17.5769 119.616)" fill="#ABADB4"/>
<rect x="20.1875" y="139.445" width="21" height="4" rx="2" transform="rotate(-7.5 20.1875 139.445)" fill="#ABADB4"/>
</svg>
