<svg width="178" height="83" viewBox="0 0 178 83" fill="none" xmlns="http://www.w3.org/2000/svg">
<path fill-rule="evenodd" clip-rule="evenodd" d="M67.688 63.304C68.52 63.496 69.176 63.624 69.656 63.688C70.232 63.752 70.68 63.72 71 63.592C71.32 63.464 71.48 63.336 71.48 63.208C71.48 63.016 71.24 62.92 70.76 62.92H70.472C68.456 62.984 67.032 62.456 66.2 61.336C65.4 60.248 65 58.824 65 57.064C65 55.432 65.24 53.656 65.72 51.736C66.232 49.784 66.872 47.8 67.64 45.784C68.408 43.768 69.208 41.848 70.04 40.024C70.904 38.168 71.688 36.536 72.392 35.128C73.032 33.88 73.496 32.696 73.784 31.576C74.104 30.456 74.264 29.496 74.264 28.696C74.264 26.584 73.4 25.528 71.672 25.528C70.296 25.528 68.552 26.296 66.44 27.832C64.328 29.368 62.04 31.672 59.576 34.744C57.56 37.272 55.704 39.72 54.008 42.088C52.312 44.456 50.968 46.408 49.976 47.944C50.968 44.936 51.928 41.96 52.856 39.016C53.784 36.04 54.392 33.016 54.68 29.944C54.712 29.688 54.728 29.496 54.728 29.368V28.888C54.728 27.192 54.36 25.992 53.624 25.288C52.888 24.584 51.992 24.232 50.936 24.232C49.752 24.232 48.52 24.584 47.24 25.288C45.96 25.992 44.824 26.936 43.832 28.12C42.968 29.176 42.2 30.136 41.528 31C40.856 31.864 40.232 32.712 39.656 33.544C39.08 34.376 38.488 35.304 37.88 36.328C37.304 37.32 36.648 38.488 35.912 39.832C35.528 40.504 35.272 40.84 35.144 40.84C35.08 40.84 35.048 40.76 35.048 40.6C35.048 40.504 35.064 40.328 35.096 40.072C35.16 39.784 35.24 39.512 35.336 39.256C35.88 37.752 36.376 36.184 36.824 34.552C37.304 32.92 37.64 31.288 37.832 29.656C37.864 29.464 37.88 29.192 37.88 28.84C37.912 28.456 37.928 28.152 37.928 27.928C37.928 24.792 37.144 22.52 35.576 21.112C34.04 19.704 32.088 19 29.72 19C27.768 19 25.656 19.432 23.384 20.296C21.112 21.16 18.872 22.376 16.664 23.944C14.456 25.48 12.44 27.304 10.616 29.416C8.824 31.496 7.4 33.768 6.344 36.232C5.864 37.352 5.512 38.44 5.288 39.496C5.096 40.52 5 41.496 5 42.424C5 44.504 5.448 46.312 6.344 47.848C7.24 49.352 8.408 50.52 9.848 51.352C11.288 52.152 12.808 52.552 14.408 52.552C15.496 52.552 16.616 52.328 17.768 51.88C19.72 51.08 21.336 50.056 22.616 48.808C23.896 47.56 24.856 46.248 25.496 44.872C26.136 43.496 26.456 42.216 26.456 41.032C26.456 39.72 26.088 38.648 25.352 37.816C24.648 36.952 23.576 36.52 22.136 36.52C21.24 36.52 20.616 36.6 20.264 36.76C19.944 36.92 19.784 37.064 19.784 37.192C19.784 37.32 19.88 37.432 20.072 37.528C20.264 37.592 20.472 37.624 20.696 37.624H20.84H21.272C21.432 37.592 21.576 37.576 21.704 37.576C22.824 37.576 23.64 37.88 24.152 38.488C24.664 39.096 24.92 39.864 24.92 40.792C24.92 41.688 24.728 42.648 24.344 43.672C23.96 44.696 23.432 45.704 22.76 46.696C22.088 47.688 21.32 48.568 20.456 49.336C19.592 50.072 18.696 50.616 17.768 50.968C17.384 51.096 16.904 51.224 16.328 51.352C15.784 51.448 15.288 51.496 14.84 51.496C13.56 51.496 12.36 51.176 11.24 50.536C10.152 49.896 9.272 48.952 8.6 47.704C7.96 46.456 7.64 44.936 7.64 43.144C7.64 42.216 7.736 41.224 7.928 40.168C8.152 39.08 8.472 37.944 8.888 36.76C9.496 35.096 10.376 33.464 11.528 31.864C12.68 30.232 14.008 28.712 15.512 27.304C17.016 25.864 18.584 24.6 20.216 23.512C21.88 22.424 23.512 21.576 25.112 20.968C26.744 20.328 28.248 20.008 29.624 20.008C31.256 20.008 32.584 20.536 33.608 21.592C34.664 22.648 35.192 24.408 35.192 26.872C35.192 27.288 35.176 27.72 35.144 28.168C35.112 28.616 35.064 29.096 35 29.608C34.776 31.176 34.36 33.032 33.752 35.176C33.144 37.288 32.408 39.544 31.544 41.944C30.712 44.312 29.8 46.664 28.808 49C27.848 51.304 26.888 53.432 25.928 55.384C24.968 57.336 24.072 58.952 23.24 60.232C23.144 60.584 23.24 60.856 23.528 61.048C23.816 61.24 24.184 61.336 24.632 61.336C25.08 61.336 25.56 61.224 26.072 61C26.616 60.776 27 60.408 27.224 59.896C28.632 56.76 29.88 54.008 30.968 51.64C32.056 49.24 33.08 47.08 34.04 45.16C35.032 43.24 36.024 41.432 37.016 39.736C38.04 38.04 39.16 36.344 40.376 34.648C41.592 32.92 43 31.048 44.6 29.032C45.528 27.88 46.44 27 47.336 26.392C48.232 25.784 49.032 25.48 49.736 25.48C50.376 25.48 50.888 25.752 51.272 26.296C51.656 26.808 51.848 27.624 51.848 28.744C51.848 29.256 51.816 29.736 51.752 30.184C51.272 34.12 50.536 37.72 49.544 40.984C48.584 44.216 47.576 47.064 46.52 49.528C45.464 51.96 44.52 53.912 43.688 55.384C42.856 56.856 42.344 57.784 42.152 58.168C42.056 58.296 42.008 58.456 42.008 58.648C42.008 58.968 42.152 59.24 42.44 59.464C42.76 59.688 43.128 59.8 43.544 59.8C44.024 59.8 44.536 59.608 45.08 59.224C45.624 58.872 46.104 58.2 46.52 57.208C46.872 56.376 47.432 55.256 48.2 53.848C49 52.44 49.912 50.904 50.936 49.24C51.992 47.544 53.064 45.88 54.152 44.248C55.24 42.584 56.264 41.08 57.224 39.736C58.184 38.36 58.968 37.288 59.576 36.52C61.912 33.64 63.96 31.496 65.72 30.088C67.512 28.648 68.856 27.928 69.752 27.928C70.552 27.928 70.952 28.456 70.952 29.512C70.952 30.568 70.52 32.104 69.656 34.12C68.568 36.648 67.432 39.208 66.248 41.8C65.064 44.392 64.056 46.888 63.224 49.288C62.424 51.656 62.024 53.832 62.024 55.816C62.024 57.544 62.328 58.92 62.936 59.944C63.544 61 64.28 61.784 65.144 62.296C66.008 62.808 66.856 63.144 67.688 63.304ZM75.125 38.2C75.445 38.52 75.845 38.68 76.325 38.68C76.965 38.68 77.525 38.44 78.005 37.96C78.485 37.48 78.725 36.936 78.725 36.328C78.725 35.88 78.565 35.496 78.245 35.176C77.925 34.856 77.509 34.696 76.997 34.696C76.421 34.696 75.893 34.92 75.413 35.368C74.933 35.816 74.693 36.344 74.693 36.952C74.693 37.432 74.837 37.848 75.125 38.2ZM69.941 57.16C70.421 57.832 71.253 58.168 72.437 58.168C73.333 58.168 74.165 57.848 74.933 57.208C75.701 56.568 76.405 55.768 77.045 54.808C77.6375 53.9333 78.1554 53.0586 78.5987 52.1839C78.4199 53.0305 78.3305 53.8572 78.3305 54.664C78.3305 55.656 78.5705 56.52 79.0505 57.256C79.5305 57.96 80.4425 58.312 81.7865 58.312C83.0025 58.312 84.0745 57.976 85.0025 57.304C85.9625 56.6 86.7785 55.752 87.4505 54.76C87.9366 54.053 88.3616 53.3536 88.7256 52.6619C88.608 53.3423 88.5492 54.0097 88.5492 54.664C88.5492 55.656 88.7893 56.52 89.2692 57.256C89.7493 57.96 90.6612 58.312 92.0052 58.312C93.2213 58.312 94.2933 57.976 95.2213 57.304C96.1813 56.6 96.9973 55.752 97.6693 54.76C98.0244 54.2434 98.3469 53.731 98.6369 53.2226C98.6283 53.3842 98.624 53.5447 98.624 53.704C98.624 55.272 99.088 56.44 100.016 57.208C100.976 57.976 102.048 58.36 103.232 58.36C104.576 58.36 105.728 58.072 106.688 57.496C107.68 56.92 108.528 56.168 109.232 55.24C109.936 54.28 110.544 53.272 111.056 52.216C111.138 52.0425 111.218 51.8707 111.298 51.7005C111.728 50.8981 112.128 50.078 112.498 49.24C113.138 47.864 113.634 46.664 113.986 45.64L114.562 44.056C115.714 44.088 116.642 44.232 117.346 44.488C118.082 44.744 118.45 45.16 118.45 45.736C118.45 45.928 118.402 46.152 118.306 46.408C118.018 47.048 117.538 47.88 116.866 48.904C116.226 49.928 115.714 50.984 115.33 52.072C114.914 53.192 114.706 54.184 114.706 55.048C114.706 56.168 115.01 56.984 115.618 57.496C116.226 57.976 116.834 58.216 117.442 58.216C117.698 58.216 117.874 58.2 117.97 58.168C118.77 57.976 119.506 57.56 120.178 56.92C120.709 56.413 121.204 55.8423 121.662 55.2078L121.719 55.2349C121.774 55.1196 121.829 55.0055 121.883 54.8927C121.956 54.7862 122.028 54.6779 122.098 54.568C122.706 53.672 123.25 52.76 123.73 51.832C124.21 50.904 124.626 50.072 124.978 49.336C125.053 49.1378 125.098 48.978 125.115 48.8565C126.041 47.4076 126.762 46.6308 127.362 46.2906C127.654 46.125 127.91 46.0672 128.146 46.0794C128.385 46.0917 128.629 46.177 128.892 46.3369C129.433 46.6653 129.991 47.2646 130.685 48.0226L130.746 48.0888C132.104 49.5724 133.885 51.5189 136.77 52.536C139.705 53.5708 143.733 53.6292 149.556 51.3854C149.711 51.3259 149.788 51.1522 149.728 50.9976C149.669 50.843 149.495 50.766 149.341 50.8256C143.608 53.0345 139.732 52.9441 136.969 51.9701C134.227 51.0033 132.532 49.1518 131.169 47.6625L131.128 47.6174C130.454 46.8813 129.833 46.2067 129.203 45.8241C128.882 45.6286 128.542 45.4991 128.177 45.4802C127.81 45.4612 127.441 45.5557 127.066 45.7688C126.331 46.1859 125.544 47.0719 124.609 48.5337C124.578 48.5817 124.548 48.6303 124.517 48.6795C124.509 48.6908 124.502 48.7025 124.495 48.7145C123.757 49.8904 122.913 51.4415 121.923 53.4438C121.87 53.5303 121.816 53.617 121.762 53.704C121.218 54.6 120.658 55.368 120.082 56.008C119.506 56.616 118.978 56.92 118.498 56.92C117.858 56.92 117.538 56.504 117.538 55.672C117.538 55.032 117.682 54.264 117.97 53.368C118.29 52.44 118.674 51.512 119.122 50.584C119.57 49.624 119.986 48.776 120.37 48.04C120.754 47.272 121.01 46.744 121.138 46.456C121.394 45.944 121.634 45.368 121.858 44.728C122.114 44.088 122.242 43.56 122.242 43.144C122.242 43.048 122.21 42.904 122.146 42.712C120.674 42.904 119.186 43 117.682 43H116.53C116.178 42.968 115.842 42.936 115.522 42.904C115.906 42.616 116.402 42.184 117.01 41.608C117.65 41 118.034 40.36 118.162 39.688C118.194 39.528 118.21 39.368 118.21 39.208C118.242 39.048 118.258 38.904 118.258 38.776C118.258 38.04 118.082 37.48 117.73 37.096C117.378 36.68 116.994 36.472 116.578 36.472C116.29 36.472 116.018 36.6 115.762 36.856C115.506 37.08 115.33 37.448 115.234 37.96C114.914 39.752 114.402 41.704 113.698 43.816C113.163 45.4985 112.526 47.1607 111.788 48.8026C111.732 48.8865 111.68 48.9843 111.632 49.096C111.344 49.736 110.96 50.52 110.48 51.448C110.475 51.4576 110.471 51.4671 110.466 51.4767C109.933 52.4539 109.367 53.386 108.769 54.2731C108.104 55.151 107.347 55.8893 106.496 56.488C105.632 57.096 104.672 57.4 103.616 57.4C102.752 57.4 102.16 57.08 101.84 56.44C101.52 55.8 101.36 55.08 101.36 54.28C101.36 53.608 101.424 52.952 101.552 52.312C101.712 51.672 101.872 51.16 102.032 50.776C102.512 50.776 103.12 50.68 103.856 50.488C104.592 50.264 105.328 49.992 106.064 49.672C106.8 49.352 107.408 49.016 107.888 48.664C109.008 47.832 109.872 46.936 110.48 45.976C111.088 45.016 111.392 44.136 111.392 43.336C111.392 42.568 111.12 41.976 110.576 41.56C110.064 41.176 109.456 40.984 108.752 40.984C107.728 40.984 106.64 41.336 105.488 42.04C104.336 42.744 103.296 43.64 102.368 44.728C101.28 45.976 100.384 47.432 99.68 49.096C99.579 49.3302 99.4852 49.5624 99.3987 49.7927C99.1242 50.319 98.7878 50.9508 98.3893 51.688C97.7812 52.84 97.0932 53.976 96.3252 55.096C95.8132 55.8 95.2692 56.344 94.6933 56.728C94.1172 57.08 93.5732 57.256 93.0612 57.256C92.4853 57.256 91.9893 57.016 91.5732 56.536C91.1892 56.024 90.9973 55.272 90.9973 54.28C90.9973 53.672 91.0932 52.936 91.2852 52.072C91.4453 51.496 91.6212 50.936 91.8132 50.392C92.0372 49.816 92.2132 49.32 92.3412 48.904C94.7093 46.728 96.6612 44.392 98.1973 41.896C99.7653 39.4 101.109 36.904 102.229 34.408C102.645 33.512 102.933 32.712 103.093 32.008C103.285 31.304 103.381 30.696 103.381 30.184C103.381 29.448 103.221 28.904 102.901 28.552C102.613 28.168 102.213 27.976 101.701 27.976C101.061 27.976 100.309 28.296 99.4453 28.936C98.6133 29.544 97.8293 30.472 97.0932 31.72C96.1653 33.288 95.2213 35.064 94.2613 37.048C93.3333 39 92.4693 41 91.6693 43.048C90.9077 45.0471 90.272 46.936 89.7622 48.7149C89.7105 48.7822 89.66 48.8613 89.6105 48.952C89.2905 49.592 88.8105 50.504 88.1705 51.688C87.5625 52.84 86.8745 53.976 86.1065 55.096C85.5945 55.8 85.0505 56.344 84.4745 56.728C83.8985 57.08 83.3545 57.256 82.8425 57.256C82.2665 57.256 81.7705 57.016 81.3545 56.536C80.9705 56.024 80.7785 55.272 80.7785 54.28C80.7785 53.672 80.8745 52.936 81.0665 52.072C81.2265 51.496 81.4025 50.936 81.5945 50.392C81.8185 49.816 81.9945 49.32 82.1225 48.904C84.4905 46.728 86.4425 44.392 87.9785 41.896C89.5465 39.4 90.8905 36.904 92.0105 34.408C92.4265 33.512 92.7145 32.712 92.8745 32.008C93.0665 31.304 93.1625 30.696 93.1625 30.184C93.1625 29.448 93.0025 28.904 92.6825 28.552C92.3945 28.168 91.9945 27.976 91.4825 27.976C90.8425 27.976 90.0905 28.296 89.2265 28.936C88.3945 29.544 87.6105 30.472 86.8745 31.72C85.9465 33.288 85.0025 35.064 84.0425 37.048C83.1145 39 82.2505 41 81.4505 43.048C80.7088 44.9951 80.0864 46.8376 79.5835 48.5758C79.5152 48.6545 79.453 48.7639 79.397 48.904C78.725 50.248 77.989 51.608 77.189 52.984C76.421 54.328 75.637 55.416 74.837 56.248C74.645 56.44 74.341 56.632 73.925 56.824C73.509 57.016 73.141 57.112 72.821 57.112C72.309 57.112 71.941 56.968 71.717 56.68C71.525 56.392 71.429 56.04 71.429 55.624V55.24C71.429 55.208 71.445 55.128 71.477 55C71.509 54.872 71.573 54.568 71.669 54.088C71.701 53.96 71.797 53.704 71.957 53.32L72.245 52.696L76.229 43.336C76.453 42.824 76.565 42.472 76.565 42.28C76.565 42.088 76.453 41.928 76.229 41.8C76.037 41.64 75.701 41.576 75.221 41.608L72.581 41.704C72.645 41.8 72.757 41.976 72.917 42.232C73.077 42.456 73.157 42.728 73.157 43.048C73.157 43.24 73.109 43.464 73.013 43.72L69.797 51.928C69.637 52.344 69.493 52.808 69.365 53.32C69.269 53.8 69.221 54.28 69.221 54.76C69.221 55.656 69.461 56.456 69.941 57.16ZM85.8665 43.288C84.7785 44.824 83.6585 46.184 82.5065 47.368C82.8585 46.408 83.3385 45.208 83.9465 43.768C84.5545 42.296 85.2265 40.776 85.9625 39.208C86.6985 37.64 87.4185 36.168 88.1225 34.792C88.8585 33.416 89.5305 32.328 90.1385 31.528C90.5545 30.952 90.8905 30.552 91.1465 30.328C91.4025 30.072 91.5945 29.944 91.7225 29.944C91.9465 29.944 92.0585 30.168 92.0585 30.616C92.0585 31 91.9785 31.48 91.8185 32.056C91.6905 32.632 91.5145 33.16 91.2905 33.64C90.6505 35.144 89.8505 36.744 88.8905 38.44C87.9625 40.104 86.9545 41.72 85.8665 43.288ZM96.0853 43.288C94.9973 44.824 93.8773 46.184 92.7253 47.368C93.0772 46.408 93.5573 45.208 94.1653 43.768C94.7732 42.296 95.4453 40.776 96.1813 39.208C96.9173 37.64 97.6373 36.168 98.3412 34.792C99.0772 33.416 99.7493 32.328 100.357 31.528C100.773 30.952 101.109 30.552 101.365 30.328C101.621 30.072 101.813 29.944 101.941 29.944C102.165 29.944 102.277 30.168 102.277 30.616C102.277 31 102.197 31.48 102.037 32.056C101.909 32.632 101.733 33.16 101.509 33.64C100.869 35.144 100.069 36.744 99.1093 38.44C98.1813 40.104 97.1732 41.72 96.0853 43.288ZM104.624 49.432C103.568 49.752 102.816 49.912 102.368 49.912C102.592 49.496 102.976 48.84 103.52 47.944C104.064 47.048 104.64 46.216 105.248 45.448C106.24 44.232 107.072 43.368 107.744 42.856C108.416 42.344 108.944 42.088 109.328 42.088C109.84 42.088 110.096 42.44 110.096 43.144C110.096 43.752 109.872 44.504 109.424 45.4C108.976 46.264 108.336 47.064 107.504 47.8C106.64 48.536 105.68 49.08 104.624 49.432Z" fill="#CF6DBB"/>
<path d="M153.334 44.3703L149.621 47.2148L148.425 52.5835C148.36 52.8785 148.736 53.0647 148.942 52.8385C150.044 51.6346 152.038 49.7709 153.027 50.8027L154.671 45.1353L153.334 44.3703V44.3703Z" fill="#BDBDBD"/>
<path d="M152.836 50.6469C152.733 49.147 153.615 46.4056 154.014 45.259C154.024 45.2327 153.984 45.2182 153.974 45.2445L151.774 50.1378C151.668 50.389 151.603 50.5641 151.569 50.6876L151.911 50.5664C152.112 50.4921 152.466 50.4958 152.721 50.5795L152.836 50.6469V50.6469Z" fill="#FAFAFA"/>
<path d="M150.683 49.4744C150.942 49.4463 151.129 49.219 151.102 48.9666C151.075 48.7142 150.843 48.5324 150.584 48.5604C150.325 48.5885 150.137 48.8158 150.165 49.0682C150.192 49.3206 150.424 49.5024 150.683 49.4744Z" fill="#212121"/>
<path d="M150.669 49.3497L148.849 52.7919C148.802 52.8747 148.829 52.9285 148.69 52.9352L148.597 52.8969L150.339 49.1607L150.669 49.3497V49.3497Z" fill="#212121"/>
<path d="M152.995 43.0116C152.622 43.3315 152.641 43.9032 153.033 44.197L154.732 45.4734C154.932 45.6238 155.181 45.6987 155.434 45.6844C155.686 45.6701 155.926 45.5676 156.109 45.3955C156.109 45.3955 165.849 32.5668 166.247 31.1304C166.633 29.7287 164.114 28.4131 163.084 29.233C162.071 30.0406 152.995 43.0116 152.995 43.0116V43.0116Z" fill="#795548"/>
<path d="M158.48 40.5109L158.324 40.4017C158.219 40.329 158.194 40.1846 158.27 40.0819L163.001 33.6531C163.076 33.5504 163.224 33.5259 163.329 33.5986L163.485 33.7078C163.59 33.7805 163.614 33.9249 163.539 34.0277L158.808 40.4585C158.733 40.5612 158.585 40.5836 158.48 40.5109ZM156.143 45.1313L153.254 43.076C153.046 42.9283 153 42.6412 153.155 42.4374C153.307 42.2338 153.602 42.1872 153.81 42.337L156.698 44.3922C156.906 44.5399 156.952 44.827 156.798 45.0308C156.645 45.2344 156.35 45.2789 156.143 45.1313Z" fill="#BCAAA4"/>
</svg>
