<svg width="263" height="223" viewBox="0 0 263 223" fill="none" xmlns="http://www.w3.org/2000/svg">
<rect width="263" height="223" fill="white"/>
<path d="M111.656 132.688C111.176 132.624 110.52 132.496 109.688 132.304C108.856 132.144 108.008 131.808 107.144 131.296C106.28 130.784 105.544 130 104.936 128.944C104.328 127.92 104.024 126.544 104.024 124.816C104.024 122.832 104.424 120.656 105.224 118.288C106.056 115.888 107.064 113.392 108.248 110.8C109.432 108.208 110.568 105.648 111.656 103.12C112.52 101.104 112.952 99.568 112.952 98.512C112.952 97.456 112.552 96.928 111.752 96.928C110.856 96.928 109.512 97.648 107.72 99.088C105.96 100.496 103.912 102.64 101.576 105.52C100.968 106.288 100.184 107.36 99.224 108.736C98.264 110.08 97.24 111.584 96.152 113.248C95.064 114.88 93.992 116.544 92.936 118.24C91.912 119.904 91 121.44 90.2 122.848C89.432 124.256 88.872 125.376 88.52 126.208C88.104 127.2 87.624 127.872 87.08 128.224C86.536 128.608 86.024 128.8 85.544 128.8C85.128 128.8 84.76 128.688 84.44 128.464C84.152 128.24 84.008 127.968 84.008 127.648C84.008 127.456 84.056 127.296 84.152 127.168C84.344 126.784 84.856 125.856 85.688 124.384C86.52 122.912 87.464 120.96 88.52 118.528C89.576 116.064 90.584 113.216 91.544 109.984C92.536 106.72 93.272 103.12 93.752 99.184C93.816 98.736 93.848 98.256 93.848 97.744C93.848 96.624 93.656 95.808 93.272 95.296C92.888 94.752 92.376 94.48 91.736 94.48C91.032 94.48 90.232 94.784 89.336 95.392C88.44 96 87.528 96.88 86.6 98.032C85 100.048 83.592 101.92 82.376 103.648C81.16 105.344 80.04 107.04 79.016 108.736C78.024 110.432 77.032 112.24 76.04 114.16C75.08 116.08 74.056 118.24 72.968 120.64C71.88 123.008 70.632 125.76 69.224 128.896C69 129.408 68.616 129.776 68.072 130C67.56 130.224 67.08 130.336 66.632 130.336C66.184 130.336 65.816 130.24 65.528 130.048C65.24 129.856 65.144 129.584 65.24 129.232C66.072 127.952 66.968 126.336 67.928 124.384C68.888 122.432 69.848 120.304 70.808 118C71.8 115.664 72.712 113.312 73.544 110.944C74.408 108.544 75.144 106.288 75.752 104.176C76.36 102.032 76.776 100.176 77 98.608C77.064 98.096 77.112 97.616 77.144 97.168C77.176 96.72 77.192 96.288 77.192 95.872C77.192 93.408 76.664 91.648 75.608 90.592C74.584 89.536 73.256 89.008 71.624 89.008C70.248 89.008 68.744 89.328 67.112 89.968C65.512 90.576 63.88 91.424 62.216 92.512C60.584 93.6 59.016 94.864 57.512 96.304C56.008 97.712 54.68 99.232 53.528 100.864C52.376 102.464 51.496 104.096 50.888 105.76C50.472 106.944 50.152 108.08 49.928 109.168C49.736 110.224 49.64 111.216 49.64 112.144C49.64 113.936 49.96 115.456 50.6 116.704C51.272 117.952 52.152 118.896 53.24 119.536C54.36 120.176 55.56 120.496 56.84 120.496C57.288 120.496 57.784 120.448 58.328 120.352C58.904 120.224 59.384 120.096 59.768 119.968C60.696 119.616 61.592 119.072 62.456 118.336C63.32 117.568 64.088 116.688 64.76 115.696C65.432 114.704 65.96 113.696 66.344 112.672C66.728 111.648 66.92 110.688 66.92 109.792C66.92 108.864 66.664 108.096 66.152 107.488C65.64 106.88 64.824 106.576 63.704 106.576C63.576 106.576 63.432 106.592 63.272 106.624C63.144 106.624 63 106.624 62.84 106.624H62.696C62.472 106.624 62.264 106.592 62.072 106.528C61.88 106.432 61.784 106.32 61.784 106.192C61.784 106.064 61.944 105.92 62.264 105.76C62.616 105.6 63.24 105.52 64.136 105.52C65.576 105.52 66.648 105.952 67.352 106.816C68.088 107.648 68.456 108.72 68.456 110.032C68.456 111.216 68.136 112.496 67.496 113.872C66.856 115.248 65.896 116.56 64.616 117.808C63.336 119.056 61.72 120.08 59.768 120.88C58.616 121.328 57.496 121.552 56.408 121.552C54.808 121.552 53.288 121.152 51.848 120.352C50.408 119.52 49.24 118.352 48.344 116.848C47.448 115.312 47 113.504 47 111.424C47 110.496 47.096 109.52 47.288 108.496C47.512 107.44 47.864 106.352 48.344 105.232C49.4 102.768 50.824 100.496 52.616 98.416C54.44 96.304 56.456 94.48 58.664 92.944C60.872 91.376 63.112 90.16 65.384 89.296C67.656 88.432 69.768 88 71.72 88C74.088 88 76.04 88.704 77.576 90.112C79.144 91.52 79.928 93.792 79.928 96.928C79.928 97.152 79.912 97.456 79.88 97.84C79.88 98.192 79.864 98.464 79.832 98.656C79.64 100.288 79.304 101.92 78.824 103.552C78.376 105.184 77.88 106.752 77.336 108.256C77.24 108.512 77.16 108.784 77.096 109.072C77.064 109.328 77.048 109.504 77.048 109.6C77.048 109.76 77.08 109.84 77.144 109.84C77.272 109.84 77.528 109.504 77.912 108.832C78.648 107.488 79.304 106.32 79.88 105.328C80.488 104.304 81.08 103.376 81.656 102.544C82.232 101.712 82.856 100.864 83.528 100C84.2 99.136 84.968 98.176 85.832 97.12C86.824 95.936 87.96 94.992 89.24 94.288C90.52 93.584 91.752 93.232 92.936 93.232C93.992 93.232 94.888 93.584 95.624 94.288C96.36 94.992 96.728 96.192 96.728 97.888C96.728 98.08 96.728 98.24 96.728 98.368C96.728 98.496 96.712 98.688 96.68 98.944C96.392 102.016 95.784 105.04 94.856 108.016C93.928 110.96 92.968 113.936 91.976 116.944C92.968 115.408 94.312 113.456 96.008 111.088C97.704 108.72 99.56 106.272 101.576 103.744C104.04 100.672 106.328 98.368 108.44 96.832C110.552 95.296 112.296 94.528 113.672 94.528C115.4 94.528 116.264 95.584 116.264 97.696C116.264 98.496 116.104 99.456 115.784 100.576C115.496 101.696 115.032 102.88 114.392 104.128C113.688 105.536 112.904 107.168 112.04 109.024C111.208 110.848 110.408 112.768 109.64 114.784C108.872 116.8 108.232 118.784 107.72 120.736C107.24 122.656 107 124.432 107 126.064C107 127.824 107.4 129.248 108.2 130.336C109.032 131.456 110.456 131.984 112.472 131.92H112.76C113.24 131.92 113.48 132.016 113.48 132.208C113.48 132.336 113.32 132.464 113 132.592C112.68 132.72 112.232 132.752 111.656 132.688ZM118.325 107.68C117.845 107.68 117.445 107.52 117.125 107.2C116.837 106.848 116.693 106.432 116.693 105.952C116.693 105.344 116.933 104.816 117.413 104.368C117.893 103.92 118.421 103.696 118.997 103.696C119.509 103.696 119.925 103.856 120.245 104.176C120.565 104.496 120.725 104.88 120.725 105.328C120.725 105.936 120.485 106.48 120.005 106.96C119.525 107.44 118.965 107.68 118.325 107.68ZM114.437 127.168C113.253 127.168 112.421 126.832 111.941 126.16C111.461 125.456 111.221 124.656 111.221 123.76C111.221 123.28 111.269 122.8 111.365 122.32C111.493 121.808 111.637 121.344 111.797 120.928L115.013 112.72C115.109 112.464 115.157 112.24 115.157 112.048C115.157 111.728 115.077 111.456 114.917 111.232C114.757 110.976 114.645 110.8 114.581 110.704L117.221 110.608C117.701 110.576 118.037 110.64 118.229 110.8C118.453 110.928 118.565 111.088 118.565 111.28C118.565 111.472 118.453 111.824 118.229 112.336L114.245 121.696C114.245 121.696 114.149 121.904 113.957 122.32C113.797 122.704 113.701 122.96 113.669 123.088C113.573 123.568 113.509 123.872 113.477 124C113.445 124.128 113.429 124.208 113.429 124.24C113.429 124.272 113.429 124.4 113.429 124.624C113.429 125.04 113.525 125.392 113.717 125.68C113.941 125.968 114.309 126.112 114.821 126.112C115.141 126.112 115.509 126.016 115.925 125.824C116.341 125.632 116.645 125.44 116.837 125.248C117.637 124.416 118.421 123.328 119.189 121.984C119.989 120.608 120.725 119.248 121.397 117.904C121.525 117.584 121.685 117.424 121.877 117.424C122.037 117.424 122.117 117.536 122.117 117.76C122.117 117.888 122.069 118.08 121.973 118.336C121.653 119.008 121.253 119.84 120.773 120.832C120.293 121.824 119.717 122.816 119.045 123.808C118.405 124.768 117.701 125.568 116.933 126.208C116.165 126.848 115.333 127.168 114.437 127.168ZM123.786 127.312C122.442 127.312 121.531 126.96 121.05 126.256C120.571 125.52 120.33 124.656 120.33 123.664C120.33 122.64 120.475 121.584 120.762 120.496C121.05 119.408 121.307 118.496 121.531 117.76C122.043 115.968 122.683 114.064 123.451 112.048C124.251 110 125.115 108 126.043 106.048C127.003 104.064 127.947 102.288 128.875 100.72C129.611 99.472 130.395 98.544 131.227 97.936C132.09 97.296 132.842 96.976 133.482 96.976C133.994 96.976 134.395 97.168 134.683 97.552C135.003 97.904 135.162 98.448 135.162 99.184C135.162 99.696 135.066 100.304 134.875 101.008C134.715 101.712 134.426 102.512 134.01 103.408C132.891 105.904 131.547 108.4 129.979 110.896C128.442 113.392 126.491 115.728 124.122 117.904C123.994 118.32 123.818 118.816 123.594 119.392C123.402 119.936 123.227 120.496 123.066 121.072C122.874 121.936 122.779 122.672 122.779 123.28C122.779 124.272 122.97 125.024 123.354 125.536C123.771 126.016 124.267 126.256 124.842 126.256C125.354 126.256 125.898 126.08 126.475 125.728C127.05 125.344 127.594 124.8 128.106 124.096C128.875 122.976 129.562 121.84 130.171 120.688C130.811 119.504 131.29 118.592 131.611 117.952C131.802 117.6 132.01 117.424 132.234 117.424C132.395 117.424 132.475 117.52 132.475 117.712C132.475 117.872 132.426 118.048 132.33 118.24C132.043 118.88 131.659 119.712 131.178 120.736C130.73 121.728 130.155 122.736 129.451 123.76C128.779 124.752 127.963 125.6 127.003 126.304C126.075 126.976 125.003 127.312 123.786 127.312ZM124.507 116.368C125.659 115.184 126.779 113.824 127.867 112.288C128.954 110.72 129.963 109.104 130.891 107.44C131.851 105.744 132.65 104.144 133.291 102.64C133.515 102.16 133.69 101.632 133.819 101.056C133.979 100.48 134.059 100 134.059 99.616C134.059 99.168 133.947 98.944 133.723 98.944C133.594 98.944 133.403 99.072 133.146 99.328C132.891 99.552 132.554 99.952 132.138 100.528C131.531 101.328 130.858 102.416 130.122 103.792C129.419 105.168 128.699 106.64 127.963 108.208C127.227 109.776 126.554 111.296 125.947 112.768C125.339 114.208 124.858 115.408 124.507 116.368ZM134.005 127.312C132.661 127.312 131.749 126.96 131.269 126.256C130.789 125.52 130.549 124.656 130.549 123.664C130.549 122.64 130.693 121.584 130.981 120.496C131.269 119.408 131.525 118.496 131.749 117.76C132.261 115.968 132.901 114.064 133.669 112.048C134.469 110 135.333 108 136.261 106.048C137.221 104.064 138.165 102.288 139.093 100.72C139.829 99.472 140.613 98.544 141.445 97.936C142.309 97.296 143.061 96.976 143.701 96.976C144.213 96.976 144.613 97.168 144.901 97.552C145.221 97.904 145.381 98.448 145.381 99.184C145.381 99.696 145.285 100.304 145.093 101.008C144.933 101.712 144.645 102.512 144.229 103.408C143.109 105.904 141.765 108.4 140.197 110.896C138.661 113.392 136.709 115.728 134.341 117.904C134.213 118.32 134.037 118.816 133.813 119.392C133.621 119.936 133.445 120.496 133.285 121.072C133.093 121.936 132.997 122.672 132.997 123.28C132.997 124.272 133.189 125.024 133.573 125.536C133.989 126.016 134.485 126.256 135.061 126.256C135.573 126.256 136.117 126.08 136.693 125.728C137.269 125.344 137.813 124.8 138.325 124.096C139.093 122.976 139.781 121.84 140.389 120.688C141.029 119.504 141.509 118.592 141.829 117.952C142.021 117.6 142.229 117.424 142.453 117.424C142.613 117.424 142.693 117.52 142.693 117.712C142.693 117.872 142.645 118.048 142.549 118.24C142.261 118.88 141.877 119.712 141.397 120.736C140.949 121.728 140.373 122.736 139.669 123.76C138.997 124.752 138.181 125.6 137.221 126.304C136.293 126.976 135.221 127.312 134.005 127.312ZM134.725 116.368C135.877 115.184 136.997 113.824 138.085 112.288C139.173 110.72 140.181 109.104 141.109 107.44C142.069 105.744 142.869 104.144 143.509 102.64C143.733 102.16 143.909 101.632 144.037 101.056C144.197 100.48 144.277 100 144.277 99.616C144.277 99.168 144.165 98.944 143.941 98.944C143.813 98.944 143.621 99.072 143.365 99.328C143.109 99.552 142.773 99.952 142.357 100.528C141.749 101.328 141.077 102.416 140.341 103.792C139.637 105.168 138.917 106.64 138.181 108.208C137.445 109.776 136.773 111.296 136.165 112.768C135.557 114.208 135.077 115.408 134.725 116.368ZM145.232 127.36C144.048 127.36 142.976 126.976 142.016 126.208C141.088 125.44 140.624 124.272 140.624 122.704C140.624 121.264 140.976 119.728 141.68 118.096C142.384 116.432 143.28 114.976 144.368 113.728C145.296 112.64 146.336 111.744 147.488 111.04C148.64 110.336 149.728 109.984 150.752 109.984C151.456 109.984 152.064 110.176 152.576 110.56C153.12 110.976 153.392 111.568 153.392 112.336C153.392 113.136 153.088 114.016 152.48 114.976C151.872 115.936 151.008 116.832 149.888 117.664C149.408 118.016 148.8 118.352 148.064 118.672C147.328 118.992 146.592 119.264 145.856 119.488C145.12 119.68 144.512 119.776 144.032 119.776C143.872 120.16 143.712 120.672 143.552 121.312C143.424 121.952 143.36 122.608 143.36 123.28C143.36 124.08 143.52 124.8 143.84 125.44C144.16 126.08 144.752 126.4 145.616 126.4C146.672 126.4 147.632 126.096 148.496 125.488C149.36 124.88 150.128 124.128 150.8 123.232C151.472 122.304 152.032 121.376 152.48 120.448C152.96 119.52 153.344 118.736 153.632 118.096C153.824 117.648 154.08 117.424 154.4 117.424C154.56 117.424 154.64 117.504 154.64 117.664C154.64 117.792 154.592 117.952 154.496 118.144C154.048 119.104 153.568 120.128 153.056 121.216C152.544 122.272 151.936 123.28 151.232 124.24C150.528 125.168 149.68 125.92 148.688 126.496C147.728 127.072 146.576 127.36 145.232 127.36ZM144.368 118.912C144.816 118.912 145.568 118.752 146.624 118.432C147.68 118.08 148.64 117.536 149.504 116.8C150.336 116.064 150.976 115.264 151.424 114.4C151.872 113.504 152.096 112.752 152.096 112.144C152.096 111.44 151.84 111.088 151.328 111.088C150.944 111.088 150.416 111.344 149.744 111.856C149.072 112.368 148.24 113.232 147.248 114.448C146.64 115.216 146.064 116.048 145.52 116.944C144.976 117.84 144.592 118.496 144.368 118.912ZM159.442 127.216C158.834 127.216 158.226 126.976 157.618 126.496C157.01 125.984 156.706 125.168 156.706 124.048C156.706 123.184 156.914 122.192 157.33 121.072C157.714 119.984 158.226 118.928 158.866 117.904C159.538 116.88 160.018 116.048 160.306 115.408C160.402 115.152 160.45 114.928 160.45 114.736C160.45 114.16 160.082 113.744 159.346 113.488C158.642 113.232 157.714 113.088 156.562 113.056L155.986 114.64C155.634 115.664 155.138 116.864 154.498 118.24C153.89 119.616 153.202 120.944 152.434 122.224C151.698 123.504 150.93 124.528 150.13 125.296C150.066 125.36 149.986 125.392 149.89 125.392C149.762 125.392 149.682 125.312 149.65 125.152C149.586 124.992 149.65 124.8 149.842 124.576C151.09 122.912 152.21 121.072 153.202 119.056C154.194 117.008 155.026 114.928 155.698 112.816C156.402 110.704 156.914 108.752 157.234 106.96C157.33 106.448 157.506 106.08 157.762 105.856C158.018 105.6 158.29 105.472 158.578 105.472C158.994 105.472 159.378 105.68 159.73 106.096C160.082 106.48 160.258 107.04 160.258 107.776C160.258 107.904 160.242 108.048 160.21 108.208C160.21 108.368 160.194 108.528 160.162 108.688C160.034 109.36 159.65 110 159.01 110.608C158.402 111.184 157.906 111.616 157.522 111.904C157.842 111.936 158.178 111.968 158.53 112C158.882 112 159.266 112 159.682 112C161.186 112 162.674 111.904 164.146 111.712C164.21 111.904 164.242 112.048 164.242 112.144C164.242 112.56 164.114 113.088 163.858 113.728C163.634 114.368 163.394 114.944 163.138 115.456C163.01 115.744 162.754 116.272 162.37 117.04C161.986 117.776 161.57 118.624 161.122 119.584C160.674 120.512 160.29 121.44 159.97 122.368C159.682 123.264 159.538 124.032 159.538 124.672C159.538 125.504 159.858 125.92 160.498 125.92C160.978 125.92 161.506 125.616 162.082 125.008C162.658 124.368 163.218 123.6 163.762 122.704C164.338 121.776 164.85 120.88 165.298 120.016C165.778 119.12 166.146 118.416 166.402 117.904C166.53 117.584 166.706 117.424 166.93 117.424C167.058 117.424 167.122 117.536 167.122 117.76C167.122 117.888 167.074 118.08 166.978 118.336C166.626 119.072 166.21 119.904 165.73 120.832C165.25 121.76 164.706 122.672 164.098 123.568C163.522 124.464 162.882 125.248 162.178 125.92C161.506 126.56 160.77 126.976 159.97 127.168C159.874 127.2 159.698 127.216 159.442 127.216Z" fill="#CF6DBB"/>
<path d="M191.556 120.385C191.711 120.326 191.788 120.152 191.728 119.998C191.669 119.843 191.495 119.766 191.341 119.826L191.556 120.385ZM191.341 119.826C185.608 122.034 181.732 121.944 178.969 120.97C176.199 119.994 174.498 118.114 173.128 116.617C172.454 115.881 171.833 115.207 171.203 114.824C170.882 114.629 170.542 114.499 170.177 114.48C169.81 114.461 169.441 114.556 169.066 114.769C168.331 115.186 167.544 116.072 166.609 117.534C165.668 119.005 164.555 121.098 163.178 123.976L163.719 124.235C165.092 121.363 166.194 119.297 167.115 117.857C168.041 116.408 168.762 115.631 169.362 115.291C169.654 115.125 169.91 115.067 170.146 115.079C170.385 115.092 170.629 115.177 170.892 115.337C171.433 115.665 171.991 116.265 172.685 117.023C174.05 118.514 175.842 120.504 178.77 121.536C181.705 122.571 185.733 122.629 191.556 120.385L191.341 119.826Z" fill="#CF6DBB"/>
<path d="M195.334 113.37L191.621 116.215L190.425 121.584C190.36 121.878 190.736 122.065 190.942 121.839C192.044 120.635 194.038 118.771 195.027 119.803L196.671 114.135L195.334 113.37Z" fill="#BDBDBD"/>
<path d="M194.836 119.647C194.733 118.147 195.615 115.406 196.014 114.259C196.024 114.233 195.984 114.218 195.974 114.244L193.774 119.138C193.668 119.389 193.603 119.564 193.569 119.688L193.911 119.566C194.112 119.492 194.466 119.496 194.721 119.58L194.836 119.647Z" fill="#FAFAFA"/>
<path d="M192.683 118.474C192.942 118.446 193.129 118.219 193.102 117.967C193.075 117.714 192.843 117.532 192.584 117.56C192.325 117.589 192.137 117.816 192.165 118.068C192.192 118.321 192.424 118.502 192.683 118.474Z" fill="#212121"/>
<path d="M192.669 118.35L190.849 121.792C190.802 121.875 190.829 121.929 190.69 121.935L190.597 121.897L192.339 118.161L192.669 118.35Z" fill="#212121"/>
<path d="M194.995 112.012C194.622 112.332 194.641 112.903 195.033 113.197L196.732 114.473C196.932 114.624 197.181 114.699 197.434 114.684C197.686 114.67 197.926 114.568 198.109 114.396C198.109 114.396 207.849 101.567 208.247 100.13C208.633 98.7287 206.114 97.4131 205.084 98.233C204.071 99.0406 194.995 112.012 194.995 112.012Z" fill="#795548"/>
<path d="M200.48 109.511L200.324 109.402C200.219 109.329 200.194 109.185 200.27 109.082L205.001 102.653C205.076 102.55 205.224 102.526 205.329 102.599L205.485 102.708C205.59 102.78 205.614 102.925 205.539 103.028L200.808 109.458C200.733 109.561 200.585 109.584 200.48 109.511ZM198.143 114.131L195.254 112.076C195.046 111.928 195 111.641 195.155 111.437C195.307 111.234 195.602 111.187 195.81 111.337L198.698 113.392C198.906 113.54 198.952 113.827 198.798 114.031C198.645 114.234 198.35 114.279 198.143 114.131Z" fill="#BCAAA4"/>
</svg>
