<svg width="14" height="12" viewBox="0 0 14 12" fill="none" xmlns="http://www.w3.org/2000/svg">
<path d="M5.66645 6.66667H8.33312C8.50993 6.66667 8.6795 6.59643 8.80453 6.4714C8.92955 6.34638 8.99979 6.17681 8.99979 6C8.99979 5.82319 8.92955 5.65362 8.80453 5.5286C8.6795 5.40357 8.50993 5.33333 8.33312 5.33333H5.66645C5.48964 5.33333 5.32007 5.40357 5.19505 5.5286C5.07002 5.65362 4.99979 5.82319 4.99979 6C4.99979 6.17681 5.07002 6.34638 5.19505 6.4714C5.32007 6.59643 5.48964 6.66667 5.66645 6.66667ZM11.6665 0H2.33312C1.86409 0.00363891 1.41126 0.172009 1.05379 0.475677C0.696321 0.779345 0.456949 1.19899 0.377521 1.66126C0.298094 2.12353 0.383664 2.59901 0.619273 3.00458C0.854882 3.41015 1.22554 3.72001 1.66645 3.88V10C1.66645 10.5304 1.87717 11.0391 2.25224 11.4142C2.62731 11.7893 3.13602 12 3.66645 12H10.3331C10.8636 12 11.3723 11.7893 11.7473 11.4142C12.1224 11.0391 12.3331 10.5304 12.3331 10V3.88C12.774 3.72001 13.1447 3.41015 13.3803 3.00458C13.6159 2.59901 13.7015 2.12353 13.6221 1.66126C13.5426 1.19899 13.3033 0.779345 12.9458 0.475677C12.5883 0.172009 12.1355 0.00363891 11.6665 0ZM10.9998 10C10.9998 10.1768 10.9296 10.3464 10.8045 10.4714C10.6795 10.5964 10.5099 10.6667 10.3331 10.6667H3.66645C3.48964 10.6667 3.32007 10.5964 3.19505 10.4714C3.07003 10.3464 2.99979 10.1768 2.99979 10V4H10.9998V10ZM11.6665 2.66667H2.33312C2.15631 2.66667 1.98674 2.59643 1.86172 2.4714C1.73669 2.34638 1.66645 2.17681 1.66645 2C1.66645 1.82319 1.73669 1.65362 1.86172 1.5286C1.98674 1.40357 2.15631 1.33333 2.33312 1.33333H11.6665C11.8433 1.33333 12.0128 1.40357 12.1379 1.5286C12.2629 1.65362 12.3331 1.82319 12.3331 2C12.3331 2.17681 12.2629 2.34638 12.1379 2.4714C12.0128 2.59643 11.8433 2.66667 11.6665 2.66667Z" fill="#F87023"/>
</svg>
